<?xml version="1.0" standalone="no"?>
<!DOCTYPE svg PUBLIC "-//W3C//DTD SVG 1.1//EN" "http://www.w3.org/Graphics/SVG/1.1/DTD/svg11.dtd" >
<svg xmlns="http://www.w3.org/2000/svg">
<metadata>Generated by IcoMoon</metadata>
<defs>
<font id="icomoon" horiz-adv-x="1024">
<font-face units-per-em="1024" ascent="960" descent="-64" />
<missing-glyph horiz-adv-x="1024" />
<glyph unicode="&#x20;" horiz-adv-x="512" d="" />
<glyph unicode="&#xe900;" glyph-name="world_boss" d="M834.972 874.667c2.347-96.853-79.573-148.693-172.375-198.827-30.293-16.64-62.078-33.067-92.587-51.2 17.28 24.747 34.349 50.347 51.413 77.867-32 16.64-69.118 25.813-108.585 25.813s-76.587-8.96-108.587-25.813c17.28-27.307 34.347-53.12 51.84-77.867-30.293 18.133-62.080 34.347-92.587 51.2-92.587 50.133-174.934 101.973-172.161 198.827-109.227-165.333 18.133-209.707 114.134-273.28-14.933-30.080-23.040-64.427-23.040-101.12 62.72 3.413 119.253-14.293 167.253-62.080-62.507 11.947-121.6 16.64-174.933 10.027l-4.907-126.507-16-32 28.8-36.053c32 11.307 68.053 16.427 108.8 13.653-54.4-44.8-59.52-193.707 20.053-245.76-8.107 54.187 0 97.493 21.12 132.907 0-29.013 6.613-53.333 23.68-70.827 2.987 24.96 13.44 47.787 28.373 69.547 4.267-25.813 13.013-48 28.371-65.707 15.787 17.707 24.322 40.107 28.802 65.707 14.933-21.76 25.387-44.373 28.371-69.547 17.067 17.28 23.682 41.813 23.682 70.827 21.12-35.413 29.013-78.72 21.12-132.907 79.571 52.053 74.453 200.96 19.627 245.76 41.173 2.773 77.227-2.347 109.227-13.653l28.798 36.053-16.425 32-4.695 126.507c-53.333 6.613-112.638 1.92-174.931-10.027 48 47.787 104.533 65.493 167.253 62.080 0 37.12-8.107 71.040-23.040 101.547 96.213 63.147 223.36 107.52 114.133 272.853zM349.212 298.24l-66.773 65.493 26.027 67.2 178.347-65.707-137.6-66.773v-0.213zM512.838 249.813l-56.747-27.307 56.747 112.853 57.171-112.853-57.171 27.307zM717.636 430.933l26.029-67.2-66.775-65.493-138.025 66.773 178.771 65.707v0.213z" />
<glyph unicode="&#xe901;" glyph-name="weapon" d="M514.278 676.265l-89.455-94.082 15.204-15.422-22.033-66.099-66.099-23.136-15.424 15.204-94.082-88.132c-36.133 19.168-41.862 52.879-42.082 88.352 12.122-12.403 30.274-16.768 46.71-11.236l93.862 94.961 94.522 93.421c5.623 16.463 1.346 34.692-11.017 46.931 35.473-0.22 69.184-5.728 89.894-40.762zM440.247 567.642l350.106-353.852c38.112-51.396 66.831-109.131 84.828-170.534-61.801 17.314-119.951 45.681-171.639 83.725l-353.85 349.886 92.318-2.423-1.762 93.199zM173.427 767.261l163.926-132.198-53.76-54.202-132.199 163.044c-20.341-9.626-44.658-3.219-57.617 15.178s-10.803 43.451 5.109 59.363c15.912 15.912 40.966 18.069 59.363 5.109s24.803-37.276 15.178-57.617v1.322z" />
<glyph unicode="&#xe902;" glyph-name="tint" d="M584.32 650.88h-164.48l-121.173-128.64 19.627-207.36 27.733-293.547h311.893l27.733 293.547 19.627 207.36-120.96 128.64zM380.373 314.88l-17.493 185.173 83.413 88.96h111.147l83.627-88.96-17.493-185.173h-243.2zM643.627 762.88h-283.52v-61.653h283.52v61.653zM581.973 874.667h-160.213v-61.653h160.213v61.653z" />
<glyph unicode="&#xe903;" glyph-name="story_boss" d="M868.273 789.333c14.72-131.84-70.827-132.267-157.653-170.88-8.32-59.947-32.64-119.893-78.507-160.427l-21.973 24.96c33.28 29.44 53.547 71.68 63.36 116.053 11.307 49.28 9.6 101.333-2.133 141.44-9.6-46.933-23.253-89.387-41.6-126.933-14.293-30.293-31.573-57.387-51.413-81.493l-25.813 21.12c17.92 21.76 33.707 46.933 47.147 74.667-25.6 10.667-55.68 18.133-87.68 18.133s-61.867-7.467-87.68-18.133c13.44-27.733 29.227-52.907 47.147-74.667l-25.813-21.12c-19.84 24.107-37.12 51.2-51.413 81.493-18.133 37.547-32 80-41.6 126.933-11.733-40.107-13.653-92.16-2.133-141.44 9.813-44.587 30.080-86.827 63.36-116.053l-21.973-24.96c-45.867 40.533-70.187 100.267-78.507 160.427-86.827 38.613-172.373 39.040-157.653 170.88-230.187-285.867 175.146-234.667 205.44-359.68l-47.787-82.347 43.947-67.627 80-1.493c-45.013-32.853-49.493-117.547 10.453-158.507-7.040 29.227-12.373 63.573-10.453 89.6 9.6-25.6 21.547-45.653 37.547-56.747 0 13.227 4.267 23.040 12.373 30.080 4.053-16.213 10.667-29.653 24.533-36.907 13.867 7.253 20.48 20.693 24.32 36.907 8.533-6.827 12.587-16.853 12.587-30.080 16 11.093 27.947 31.147 37.547 56.747 1.92-26.027-3.413-60.587-10.453-89.6 59.947 40.96 55.467 125.653 10.453 158.507l80 1.493 43.947 67.627-47.787 82.347c30.507 125.013 435.413 73.813 205.44 359.68h0.427zM572.38 416.427h44.8c-32.213-16.853-59.52-42.88-82.56-77.653 11.52 32.64 24.107 59.947 37.76 77.653zM511.793 466.773c18.987-40.107 18.987-80 0-120.107-18.987 40.107-18.987 80 0 120.107zM451.206 416.427c13.867-17.493 26.24-45.013 37.76-77.653-22.827 34.773-50.347 60.8-82.56 77.653h44.8zM375.26 315.733l-22.187 33.28 30.72 53.973 90.88-87.467h-99.413v0.213zM511.58 268.16l-47.787-26.667 47.787 80.853 47.787-80.853-47.787 26.667zM670.086 349.013l-22.4-33.28h-99.2l90.88 87.467 30.72-53.973v-0.213z" />
<glyph unicode="&#xe904;" glyph-name="shortcut" d="M559.573 718.293v-520.96c-0.055-7.582-3.123-14.831-8.523-20.151-5.402-5.321-12.695-8.279-20.277-8.222h-237.013c-15.669 0-28.373 12.704-28.373 28.373v136.533h56.96v-107.947h180.053v463.573h-180.053v-106.667h-56.96v135.467c0.115 15.622 12.751 28.258 28.373 28.373h237.013c15.74 0.002 28.567-12.634 28.8-28.373zM85.333 493.867h322.347v-71.893h-322.347v71.893zM892.16 509.013l-121.813 134.4h-93.013l55.893-61.44 79.787-88.107h-157.227v-72.107h157.227l-79.787-87.893-55.893-61.867h92.8l55.893 61.867 66.133 72.533 46.507 51.413-46.507 51.2z" />
<glyph unicode="&#xe905;" glyph-name="secondary_quest" d="M601.173 116.907l-96-95.573-95.36 95.573 95.36 95.147 2.56-2.347 93.44-92.8zM605.44 774.827l-100.267-449.707-99.84 449.707 99.84 99.84 100.267-99.84z" />
<glyph unicode="&#xe906;" glyph-name="rest_point" d="M537.875 51.296l-64.186-29.963-367.023 785.997 64.186 29.965 74.468-159.575 89.361-191.313 32.448-69.327 170.746-365.783zM929.722 862.295c-34.221-292.909-337.946-540.606-397.342-333.69l-165.25-111.526-32.448 69.327c105.141 78.724 21.986 230.321-89.361 191.313l-34.929 74.825c57.977 44.503 121.455 81.382 188.476 113.651 34.221 16.311 74.825 8.51 101.242-18.618l79.255-81.739c23.049-23.582 57.092-32.269 88.83-23.228 83.511 23.582 171.281 65.604 261.527 119.684z" />
<glyph unicode="&#xe907;" glyph-name="recoat" d="M924.16 558.933l-117.333-40.533-98.987 56.96-30.72 182.4-148.48 116.907c190.080-7.253 348.373-138.667 395.52-315.733zM938.027 428.587c-10.24-226.56-196.907-406.827-426.027-406.827-16.427 0-32.427 0.853-48.427 2.773l36.267 255.573 162.133 173.867 131.627-75.52 144.427 50.133zM581.333 555.52l-202.667-217.6-39.467-279.467c-149.76 66.133-253.867 215.893-253.867 389.973 0 181.333 112.853 336 272.427 397.867l201.387-158.507 22.187-132.267z" />
<glyph unicode="&#xe908;" glyph-name="quest_item" d="M315.307 248.506l52.053-52.053 64 64-52.053 52.053 131.84 131.84c91.52-61.44 216.747-51.838 297.387 29.013 91.52 91.52 91.52 240.853 0 332.588-91.52 91.733-240.64 91.52-332.373 0-80.64-80.641-90.24-206.081-29.227-297.388l-318.933-319.147 168.107-168.107 64 64-104.107 104.107 59.093 59.093h0.213zM540.373 741.732c56.32 56.321 148.053 56.321 204.16 0 56.107-56.32 56.32-148.267 0-204.373-45.227-45.227-113.067-54.185-167.040-26.667-13.653 6.613-26.027 15.573-37.333 26.667s-20.267 23.68-26.667 37.333c-27.307 53.76-18.347 121.813 26.88 166.827v0.213z" />
<glyph unicode="&#xe909;" glyph-name="primary_quest" d="M597.973 273.493l-75.947-75.733-75.733 75.733 73.813 73.6 1.92 2.133 1.92-2.133 74.027-73.6zM875.947 374.613l-121.813-121.387 81.067-151.68-151.68 81.493-161.92-161.707-161.28 161.28-151.467-81.067 81.067 151.467-161.92 161.92 40.107 40.533 121.813 121.813-81.067 151.040 151.040-81.067 37.973 37.76 14.72-65.92-94.507-94.507-109.44-109.653 312.96-312.96 314.027 312.96-204.16 203.52 14.507 65.707 37.547-37.333 151.68 81.493-81.067-151.467 162.347-161.92-40.533-40.32zM601.387 795.307l-79.36-356.48-79.36 356.48 79.36 79.36 79.36-79.36z" />
<glyph unicode="&#xe90a;" glyph-name="point_of_interest" d="M793.387 560.427l-290.133-524.16-289.92 524.16 289.92-289.92 73.387 73.173 216.747 216.747zM503.253 874.667l-221.013-221.44 221.013-221.013 221.227 221.013-221.227 221.44zM398.72 653.227l104.533 104.747 104.747-104.747-104.747-104.533-104.533 104.533z" />
<glyph unicode="&#xe90b;" glyph-name="pictos" d="M852.115 511.716l-46.103-46.103 40.448-40.448-95.249-95.249v203.33h-112.646l-6.091-5.218-248.563-207.243v337.506h335.985v65.239h-289.882l58.933 58.933 40.448-40.448 46.103 46.103-86.549 86.547-403.616-403.616 449.717-449.717 197.242 197.242 18.918 19.136 187.454 187.454-86.549 86.551zM318.673 329.916l-141.135 141.135 141.135 141.135v-282.27zM535.051 113.538l-105.037 105.037h210.071l-105.035-105.037zM685.971 283.814h-244.649l220.727 184.192h23.921v-184.192z" />
<glyph unicode="&#xe90c;" glyph-name="paint_cage" d="M938.667 445.013l-103.040-81.707c-1.493-54.187-19.413-109.867-52.267-161.92h-118.827c63.573 66.987 90.027 146.347 71.040 213.333-11.733 40.747-38.827 69.76-72.96 78.080-27.093 6.4-57.173-0.427-87.253-20.053 30.72-27.307 53.333-59.093 61.653-91.947 10.667-41.173-1.92-80.64-33.92-109.013-5.333-4.693-11.307-9.173-17.707-13.227-3.2-1.92-6.613-3.84-10.027-5.547-0.64-0.213-1.067-0.64-1.707-0.64-33.493-15.147-74.667-10.667-108.373 10.453-12.16 7.467-23.253 17.28-32.853 28.8-24.747 30.080-38.187 74.667-21.12 126.080 0.853 0 1.707 0.213 2.56 0.213 34.347-9.813 63.787-26.453 83.84-47.147 0-6.187 1.92-12.16 5.973-17.707 4.48-6.187 10.667-10.24 16.213-12.587 6.613-2.987 13.013-3.627 15.36-2.347 13.653 8.533 12.16 13.867 10.88 19.413-1.28 5.333-4.053 10.88-7.893 16.64-1.707 2.56-3.627 5.12-5.547 7.467-1.707 2.347-3.627 4.48-5.973 7.040-1.28 1.707-2.773 3.2-4.48 4.907-26.24 27.733-62.507 45.867-97.067 56.107-2.347 0.853-4.907 1.493-7.253 1.92-0.213 0-0.64 0-0.853 0.213-9.6 2.347-19.413 3.84-29.013 4.267-39.467 2.56-68.267-4.693-86.187-21.333-7.040-6.4-12.373-14.507-16-24.107-1.92-5.12-3.413-10.453-4.48-16.213-5.973-33.707 3.84-76.8 23.68-116.053 6.4-12.587 13.867-24.533 22.187-35.84 11.307-15.787 24.747-29.867 39.253-41.173h-125.44c-11.093 16.64-20.693 34.133-28.587 52.267-5.12 11.52-9.387 23.253-13.013 34.987-0.213 0.853-0.64 1.707-0.853 2.56l-113.28 54.4 101.973 48.853c1.707 17.28 5.333 33.92 11.093 49.28 2.347 6.187 4.907 12.16 8.107 17.92l-41.173 117.12 124.373-43.52c16.853 6.827 35.627 11.307 55.893 13.653l65.067 104.96 40.107-113.707c13.653-3.84 26.88-8.533 39.68-13.867 46.293 40.32 90.027 56.32 126.507 61.227l75.947 95.147 24.747-110.080c41.813-18.987 75.52-53.76 96-98.987l125.013-28.8v0.213z" />
<glyph unicode="&#xe90d;" glyph-name="optional_boss" d="M834.972 874.667c2.347-96.853-79.573-148.693-172.375-198.827-30.293-16.64-62.078-33.067-92.587-51.2 17.28 24.747 34.349 50.347 51.413 77.867-32 16.64-69.118 25.813-108.585 25.813s-76.587-8.96-108.587-25.813c17.28-27.307 34.347-53.12 51.84-77.867-30.293 18.133-62.080 34.347-92.587 51.2-92.587 50.133-174.934 101.973-172.161 198.827-109.227-165.333 18.133-209.707 114.134-273.28-14.933-30.080-23.040-64.427-23.040-101.12 62.72 3.413 119.253-14.293 167.253-62.080-62.507 11.947-121.6 16.64-174.933 10.027l-4.907-126.507-16-32 28.8-36.053c32 11.307 68.053 16.427 108.8 13.653-54.4-44.8-59.52-193.707 20.053-245.76-8.107 54.187 0 97.493 21.12 132.907 0-29.013 6.613-53.333 23.68-70.827 2.987 24.96 13.44 47.787 28.373 69.547 4.267-25.813 13.013-48 28.371-65.707 15.787 17.707 24.322 40.107 28.802 65.707 14.933-21.76 25.387-44.373 28.371-69.547 17.067 17.28 23.682 41.813 23.682 70.827 21.12-35.413 29.013-78.72 21.12-132.907 79.571 52.053 74.453 200.96 19.627 245.76 41.173 2.773 77.227-2.347 109.227-13.653l28.798 36.053-16.425 32-4.695 126.507c-53.333 6.613-112.638 1.92-174.931-10.027 48 47.787 104.533 65.493 167.253 62.080 0 37.12-8.107 71.040-23.040 101.547 96.213 63.147 223.36 107.52 114.133 272.853zM349.212 298.24l-66.773 65.493 26.027 67.2 178.347-65.707-137.6-66.773v-0.213zM512.838 249.813l-56.747-27.307 56.747 112.853 57.171-112.853-57.171 27.307zM717.636 430.933l26.029-67.2-66.775-65.493-138.025 66.773 178.771 65.707v0.213z" />
<glyph unicode="&#xe90e;" glyph-name="music_record" d="M701.653 202.24c74.027 178.133 2.347 334.507-98.347 420.48l-63.36-458.88v-0.853c-7.68-54.827-41.6-103.040-92.16-125.013-0.427 0-0.853-0.427-1.493-0.64-24.107-10.453-51.413-16.213-80.213-16.213-96.213 0-174.080 63.787-174.080 142.507s78.080 142.72 174.080 142.72c43.093 0 82.56-12.8 112.64-33.92l82.773 602.24 74.027-16.213c0-152.107 424.107-368 66.133-656.213z" />
<glyph unicode="&#xe90f;" glyph-name="miscellaneous" d="M462.217 256.719c-41.442 34.876-55.642 80.666-55.642 116.651 0 52.314 38.159 92.602 96.994 154.765 68.685 69.751 88.297 105.69 88.297 153.655 0 49.030-30.526 99.168-113.323 99.168-56.706 0-123.172-22.895-168.962-78.447 2.219 30.483-5.412 105.69-10.914 132.934 41.442 13.088 101.431 39.221 200.555 39.221 183.072 0 233.212-111.149 233.212-189.596 0-112.258-75.164-170.027-172.158-268.13-40.288-38.114-40.288-57.771-40.288-77.382 0-18.502 10.827-47.964 25.024-67.575l-82.795-15.264zM419.71 97.606c0 32.702 22.895 77.382 77.382 77.382 42.507 0 75.164-30.483 75.164-75.164 0-44.725-31.593-78.492-76.318-78.492-53.333 0-76.228 41.397-76.228 76.273z" />
<glyph unicode="&#xe910;" glyph-name="merchant" d="M751.234 353.404c0-9.35-6.163-17.852-16.789-25.289-21.25-15.089-61.201-25.075-106.893-25.075s-85.643 9.988-106.893 25.075c-10.626 7.437-16.787 15.938-16.787 25.289 0 27.627 55.465 50.153 123.68 50.153s123.682-22.526 123.682-50.153zM751.234 264.149v-32.725c0-9.35-6.163-17.852-16.789-25.289-21.25-15.089-61.201-25.075-106.893-25.075s-85.643 9.988-106.893 25.075c-10.626 7.437-16.787 15.938-16.787 25.289v32.725c5.312-2.763 10.837-5.101 16.787-7.437 29.329-11.264 65.668-17.425 106.893-17.425s77.57 6.163 106.893 17.425c5.95 2.338 11.477 4.674 16.789 7.437zM751.234 142.17v-32.725c0-27.627-55.465-50.153-123.682-50.153s-123.68 22.526-123.68 50.153v32.725c5.312-2.763 10.837-5.101 16.787-7.437 29.329-11.264 65.668-17.425 106.893-17.425s77.57 6.163 106.893 17.425c5.95 2.338 11.477 4.674 16.789 7.437zM938.667 292.521c0-9.35-6.161-17.852-16.787-25.289-21.25-15.089-61.205-25.075-106.893-25.075v100.516c68.215 0 123.68-22.526 123.68-50.153zM938.667 203.266v-32.727c0-9.35-6.161-17.85-16.787-25.289-21.25-15.087-61.205-25.075-106.893-25.075v58.229c41.227 0 77.564 6.163 106.893 17.425 5.948 2.338 11.473 4.674 16.787 7.437zM560.826 603.635c-9.139 56.314 55.887 132.393 102.003 173.833-58.441 11.262-158.957 75.866-267.761 75.866-123.044 0.002-177.66-93.077-276.051-138.767l141.743-110.929c-242.897-172.559-216.122-410.357-26.351-410.357-30.601 38.464-31.239 87.767-26.138 128.356 36.126-90.955 102.006-171.070 202.524-171.070 10.199 0 19.974 0.849 29.327 2.549v200.61c0.425 68.004 75.652 113.692 187.433 113.692 25.502 0 49.090-2.338 70.342-7.012-28.478 48.452-73.53 98.178-137.071 143.23zM206.784 716.905c32.299 21.675 96.903 78.628 172.559 83.091 88.614 5.312 163.206-29.54 204.86-39.74-121.984-57.378-247.575-73.103-377.419-43.351zM280.311 568.996l36.128 34.639-20.401 28.476c32.937-16.149 63.753-25.713 92.439-28.476 12.753-1.276 25.077-1.276 36.764 0 28.691 2.976 54.829 13.6 78.63 31.452v-31.452l29.327-27.838c-81.393-41.865-165.547-45.69-252.887-6.801z" />
<glyph unicode="&#xe911;" glyph-name="lost_gestral" d="M638.507 21.333c-42.24 7.467-84.267 11.093-126.293 11.093-41.813 0-83.413-3.627-125.227-11.093-4.693 78.72-2.987 151.68 4.693 220.16 1.067 10.88 2.347 21.547 3.84 32 0.853 6.4 1.707 12.8 2.773 18.987 18.56 5.76 36.907 10.027 55.467 13.013 20.053 3.413 40.32 5.12 60.8 5.12 20.053 0 40.32-1.707 60.587-5.12 17.92-2.987 35.84-7.253 53.76-13.013 0.64-6.4 1.28-12.587 1.707-18.987 1.28-10.667 2.133-21.333 2.987-32 5.76-73.387 7.253-146.773 4.907-220.16zM938.667 667.947c-87.68-46.080-162.773-103.68-221.867-176.853l-11.093 5.76c-63.787 33.491-128.853 50.347-193.707 50.347s-130.133-16.853-193.707-50.347l-11.093-5.76c-59.093 73.173-134.187 130.773-221.867 176.853 18.133 28.373 41.813 55.253 69.76 79.787 76.373-49.707 144.213-118.825 205.867-201.173-40.747 102.187-91.947 183.467-156.8 238.293 35.84 23.68 76.587 43.733 120.533 58.667 55.253-75.52 91.52-164.267 113.491-262.827-2.56 101.333-21.76 194.56-61.867 277.973 43.093 10.24 88.533 16 135.68 16s92.587-5.76 135.68-16c-40.107-83.413-59.307-176.64-61.867-277.973 21.973 98.56 58.24 187.307 113.493 262.827 43.947-14.933 84.693-34.987 120.533-58.667-64.853-54.827-116.053-136.107-156.8-238.293 61.653 82.347 129.493 151.467 205.867 201.173 27.947-24.533 51.629-51.413 69.762-79.787zM675.84 440.107v-95.36l-27.52 8.747c-43.947 14.080-88.96 21.12-133.76 21.12-44.587 0-90.027-7.040-135.040-20.907l-31.36-9.6v96c54.613 28.8 109.227 43.093 163.84 43.093s109.227-14.293 163.84-43.093z" />
<glyph unicode="&#xe912;" glyph-name="location" d="M792.533 594.133l-280.533 280.533-426.667-426.667 426.667-426.667 426.667 426.667-146.133 146.133zM230.187 363.52l-63.147 63.147h63.147v-63.147zM230.187 469.333h-63.147l63.147 63.147v-63.147zM533.333 792.96l63.147-63.147h-63.147v63.147zM585.173 687.147l-73.173-126.72-21.333 36.907-51.84 89.813h146.347zM490.667 792.96v-63.147h-63.147l63.147 63.147zM490.667 103.040l-63.147 63.147h63.147v-63.147zM438.827 208.853l73.173 126.72 21.333-36.907 51.84-89.813h-146.347zM533.333 103.040v63.147h63.147l-63.147-63.147zM576 469.333l-2.987-1.707-33.92-19.627 215.040-124.16-117.973-117.973-124.16 215.040-19.627-33.92-1.707-2.987-102.827-178.133-117.973 117.973 215.040 124.16-215.040 124.16 117.973 117.973 124.16-215.040 19.627 33.92 1.707 2.987 102.827 178.133 117.973-117.973-178.133-102.827zM751.147 521.173v-146.347l-126.72 73.173 126.72 73.173zM272.853 374.827v146.347l126.72-73.173-126.72-73.173zM793.813 532.48l63.147-63.147h-63.147v63.147zM793.813 363.52v63.147h63.147l-63.147-63.147z" />
<glyph unicode="&#xe913;" glyph-name="journal_entry" d="M129.013 393.525v-76.834l316.809-104.201 164.721 161.037 45.259-16.841-198.402-193.926-372.066 122.355v148.932l17.367 13.946 26.313 21.314 319.177 256.026 338.125-98.673-36.049-34.997-308.126-301.284-313.127 103.147zM867.358 420.102l18.419-64.994-189.98 71.044 71.834 70.257 23.682-7.369 147.354-44.994-71.309-23.945z" />
<glyph unicode="&#xe914;" glyph-name="enemy" d="M782.72 301.227l34.773 43.52-19.627 38.827-5.76 152.747c-64.213 8.32-135.467 2.56-211.2-11.733 57.813 57.6 126.293 78.933 202.027 74.667-0.213 157.013-122.027 275.413-278.4 275.413s-278.4-118.4-278.4-275.413c75.733 4.053 144-17.28 202.027-74.667-75.307 14.293-146.56 20.053-210.773 11.733l-5.973-152.747-19.413-38.827 34.347-43.52c38.827 14.080 82.133 20.053 131.627 16.64-65.92-53.76-71.893-233.387 23.893-296.32-9.6 65.28 0 117.973 25.387 160.213 0-34.987 7.893-64.213 28.587-85.333 3.413 29.867 16 57.6 34.347 83.627 5.12-30.933 15.573-57.813 34.347-79.147 18.773 21.333 29.227 48.427 34.347 79.147 18.347-26.027 30.933-53.76 34.773-83.627 20.267 20.907 28.373 50.347 28.373 85.333 25.387-42.24 34.987-95.147 25.387-160.213 95.787 62.933 89.6 242.773 23.893 296.32 49.707 3.413 93.227-2.56 131.627-16.64h-0.213zM306.987 355.2l-80.853 79.147 31.573 80.853 215.253-79.147-165.973-80.853zM504.533 296.747l-68.693-32.853 68.693 136.107 69.12-136.107-69.12 32.853zM536.107 436.053l215.68 79.147 31.147-80.853-80.853-79.147-165.973 80.853z" />
<glyph unicode="&#xe915;" glyph-name="easter_egg" d="M215.524 639.812c-54.312-62.074-85.267-141.156-87.524-223.607 0.213-92.986 38.831-181.751 106.718-245.295 63.569-67.987 152.412-106.677 245.489-106.91 68.083 1.555 134.214 23.044 190.21 61.805-41.267 15.546-85.988 35.507-134.357 58.541 72.107-3.855 144.41 1.5 215.164 15.93 51.435 64.004 90.901 136.764 116.506 214.778-70.268-22.052-144.634-27.829-217.463-16.89-111.326 24.762-236.853 92.706-287.908 11.902-35.317-55.473 28.791-150.289 108.828-217.468 0 0-262.379 126.679-181.574 263.723 91.172 153.551 235.125-19.194 359.695-42.801 82.34-15.932 172.745 32.821 243.377 107.294 1.152 13.436 3.070 26.679 3.070 39.923 3.456 85.986-19.194 153.549-68.137 202.685s-116.892 71.209-202.88 68.33c-4.222 0-8.446 0-12.668 0 8.943-14.211 19.791-27.127 32.245-38.388 84.644-73.321 129.175-115.164 95.586-172.743-38.387-64.109-144.339-33.399-212.476 65.449 132.245-90.402 193.090 1.344 102.878 102.112-12.083 13.164-23.486 26.938-34.165 41.267-61.728-7.255-121.986-23.889-178.692-49.328-1.7-44.191 1.131-88.44 8.444-132.054-16.757 37.948-29.619 77.498-38.387 118.043-64.883-30.698-123.266-73.573-171.977-126.297v0z" />
<glyph unicode="&#xe916;" glyph-name="colour_of_lumina" d="M757.28 589.229h-138.797l-152.258 136.105-138.797-51.405-127.78-8.567-114.315-167.682 40.878-278.323 163.273-65.363h245.525l90.816 175.029 231.296 85.594-149.779-123.539-73.929-137.084h96.691l152.262 146.876 56.299 126.801-181.387 161.559zM140.433 439.663l124.572 161.314-45.894-173.453 55.957-237.299-134.634 249.438zM472.297 401.438l-54.436-170.334-20.399 210.709 108.992 58.287-47.571 133.681 123.533-91.332 121.628 4.444-231.746-145.455z" />
<glyph unicode="&#xe917;" glyph-name="chroma_catalyst" d="M938.667 707.371l-170.765 167.296-170.569-167.296h120.527v-195.371h100.279v195.371h120.527zM490.829 620.719l-84.563-88.939 14.37-14.579-20.828-62.485-62.485-21.871-14.581 14.372-88.937-83.313c-34.159 18.121-39.575 49.988-39.783 83.522 11.459-11.725 28.62-15.853 44.157-10.624l88.73 89.773 89.355 88.311c5.318 15.563 1.271 32.796-10.415 44.365 33.534-0.207 65.402-5.414 84.981-38.532zM420.845 518.035l330.965-334.507c36.030-48.587 63.177-103.166 80.19-161.214-58.419 16.369-113.393 43.185-162.255 79.149l-334.507 330.758 87.273-2.291-1.666 88.105zM168.611 706.741l154.964-124.971-50.822-51.238-124.971 154.131c-19.229-9.099-42.216-3.044-54.467 14.347-12.251 17.393-10.212 41.077 4.83 56.119 15.043 15.043 38.726 17.081 56.118 4.83s23.447-35.238 14.348-54.468v1.25z" />
<glyph unicode="&#xe918;" glyph-name="chroma" d="M877.227 501.333l-236.8-236.8v95.573l189.013 189.013-175.787 175.789h-77.227v-524.373l-72.533-72.533-63.573 63.573v529.065l108.8 108.8-45.227 45.227-418.56-418.56 418.56-418.56 418.56 418.56-45.227 45.227zM640.427 647.68l98.56-98.562-98.56-98.56v197.122zM376.32 255.573l-168.533 168.533h168.533v-168.533zM376.32 488.107h-168.533l168.533 168.533v-168.533z" />
<glyph unicode="&#xe919;" glyph-name="character" d="M598.827 21.333l-359.68 149.333c14.72 37.12 16 161.707 0 213.333-13.867 47.36-89.813 116.48-89.813 229.12 0 173.866 153.173 240.213 245.76 254.933 362.667 53.547 370.347-238.293 358.613-280.106l96.64-125.867c5.088-6.601 5.088-15.799 0-22.4-18.665-24.418-45.869-40.879-76.16-46.080-5.645-58.816-5.645-118.037 0-176.853 1.327-15.947-9.813-30.242-25.6-32.853-40.442-5.758-81.457-6.261-122.027-1.493-19.275-51.473-28.683-106.114-27.733-161.067z" />
<glyph unicode="&#xe91a;" glyph-name="area" d="M391.842 321.508c-4.531 0-6.33-1.807-8.145-7.236l-48.868-129.399c-9.043-22.618-13.574-44.337-13.574-55.198 0-16.29 8.145-28.049 36.192-28.049h13.574c10.859 0 13.574-1.807 13.574-7.236 0-7.245-5.429-9.052-15.373-9.052-28.964 0-67.872 2.716-95.921 2.716-9.961 0-59.727-2.716-106.779-2.716-11.759 0-17.189 1.807-17.189 9.052 0 5.429 5.43 7.236 12.676 7.236 8.145 0 18.987 0.9 26.234 1.807 41.623 5.429 58.812 36.192 76.917 81.438l227.119 568.262c10.859 26.242 17.205 36.201 25.35 36.201 7.228 0 13.557-8.145 22.618-28.956 21.719-49.769 166.492-418.961 224.403-556.503 34.394-81.438 60.627-94.106 79.631-98.637 13.574-2.716 27.149-3.614 38.010-3.614 7.228 0 11.759-1.807 11.759-7.236 0-7.245-8.145-9.052-41.623-9.052-32.578 0-104.964 0-177.35 1.807-16.29 0.909-20.819 1.815-20.819 7.245 0 4.523 3.614 7.236 12.676 8.137 6.33 1.815 12.659 9.961 8.145 20.819l-72.403 191.834c-1.798 4.523-4.514 6.33-9.043 6.33l-201.79 0.002zM576.437 366.754c4.531 0 5.429 2.716 4.531 5.429l-81.446 223.505c-2.716 8.145-6.33 10.859-9.961 0l-83.245-222.596c-0.9-3.622 0-6.338 3.631-6.338h166.49z" />
</font>
</defs>
</svg>
